<svg xmlns="http://www.w3.org/2000/svg" width="320" height="320" version="1.1" viewBox="0 0 320 320" xmlns:xlink="http://www.w3.org/1999/xlink"><!--{"metaAttributes":{"multicolor":true,"glyph":false,"rotatable":false,"deprecated":false,"rename":false,"themeable":false,"low-quality":false,"custom-viewport":false,"lottie":false}}-->
  <circle cx="161.47" cy="104.35" r="44.2" fill="#0097db"/>
  <path d="M194.06,140.12c-8.42,9.13-23.27,18.26-42.32,18.26-14.78,0-27.51-5.75-35.61-12.13-48.25,5.06-84.14,12.24-84.14,12.24v19.54l255.99-.03v-40.29s-43.86-.27-93.92,2.41h0Z" fill="#0097db"/>
  <path d="M62.41,235.16v23.81h-30.41v-63.34h30.41v28.5h.18l17.9-28.5h36.46l-26.7,32.74,25.2,30.6h-34.8l-18.02-23.81h-.22Z" fill="#0d2a50"/>
  <path d="M288,256.35c-7.18,2.19-16.61,3.49-25.05,3.49-30.08,0-52.18-8.55-52.18-33.42,0-22.48,21.41-32.24,50.68-32.24,8.13,0,18.47.9,26.55,3.48v21.77c-6-3.63-11.99-5.89-20.57-5.89-11.17,0-22.32,5.5-22.32,13.48s11.11,13.48,22.32,13.48c8.44,0,14.57-2.34,20.56-5.8v21.66h.01Z" fill="#0d2a50"/>
  <path d="M121.93,195.63h61.48c15.97,0,21.2,6.21,21.2,15.88,0,10.82-9.67,15.52-19.61,16.06v.18c10.2.8,20.14,1.95,20.14,14.72,0,8.34-5.23,16.5-22.79,16.5h-60.41v-63.34h-.01ZM152.34,246.09h15.86c5.95,0,7.97-2.46,7.97-6.1s-2.04-6.25-7.9-6.25h-15.92v12.35h-.01ZM152.34,222.47h15.15c5.85,0,8.15-2.37,8.15-6.01,0-4.17-2.31-6.25-7.72-6.25h-15.57v12.26h0Z" fill="#0d2a50"/>
  
</svg>